<?xml version="1.0" encoding="UTF-8" standalone="no"?>
<!-- Generator: Adobe Illustrator 18.0.0, SVG Export Plug-In . SVG Version: 6.00 Build 0)  -->

<svg
   xmlns:dc="http://purl.org/dc/elements/1.1/"
   xmlns:cc="http://creativecommons.org/ns#"
   xmlns:rdf="http://www.w3.org/1999/02/22-rdf-syntax-ns#"
   xmlns:svg="http://www.w3.org/2000/svg"
   xmlns="http://www.w3.org/2000/svg"
   xmlns:sodipodi="http://sodipodi.sourceforge.net/DTD/sodipodi-0.dtd"
   xmlns:inkscape="http://www.inkscape.org/namespaces/inkscape"
   version="1.1"
   x="0px"
   y="0px"
   viewBox="0 0 384.62448 503.69651"
   enable-background="new 659 0 931 1200"
   xml:space="preserve"
   width="153.84979"
   height="201.47861"
   id="svg3"
   sodipodi:docname="becky-text-3.svg"
   inkscape:version="0.92.1 r15371"><metadata
     id="metadata9"><rdf:RDF><cc:Work
         rdf:about=""><dc:format>image/svg+xml</dc:format><dc:type
           rdf:resource="http://purl.org/dc/dcmitype/StillImage" /><dc:title></dc:title></cc:Work></rdf:RDF></metadata><defs
     id="defs7" /><sodipodi:namedview
     pagecolor="#ffffff"
     bordercolor="#666666"
     borderopacity="1"
     objecttolerance="10"
     gridtolerance="10"
     guidetolerance="10"
     inkscape:pageopacity="0"
     inkscape:pageshadow="2"
     inkscape:window-width="1366"
     inkscape:window-height="706"
     id="namedview5"
     showgrid="false"
     inkscape:zoom="4.9120931"
     inkscape:cx="128.24478"
     inkscape:cy="102.51423"
     inkscape:window-x="-8"
     inkscape:window-y="-8"
     inkscape:window-maximized="1"
     inkscape:current-layer="svg3"
     scale-x="2"
     fit-margin-top="0"
     fit-margin-left="0"
     fit-margin-right="0"
     fit-margin-bottom="0" /><path
     id="svg-rose"
     d="m 372.48109,218.86073 c 0.1675,-0.29313 0.2931,-0.96314 0.4187,-1.17251 -1.34,-0.0838 -2.8894,0.29312 -3.8944,-0.50251 0.4607,-0.335 0.7957,-0.96313 1.4238,-1.21438 -1.6331,0.12563 -4.6063,1.21438 -6.1976,0.5025 -2.1775,-1.005 -0.4187,-2.13564 0.2094,-3.85252 -2.3869,-0.20938 -13.3582,3.18252 -7.5794,-1.71689 -2.3869,-1.42376 -5.7369,-0.79563 -8.6263,-0.96313 -1.2144,-0.0837 -3.6013,-0.0837 -2.6382,-2.13564 0.4188,-0.87938 3.1826,-1.46563 4.0619,-1.80064 0,-0.12562 0,-0.54438 0,-0.62813 -4.0619,-0.62813 -8.4588,-1.21438 -12.2694,-2.51251 -1.005,-0.33501 -4.69,-1.84252 -5.067,-2.93127 -0.7118,-2.09377 2.722,-1.88439 3.9782,-2.3869 -2.8475,-0.79563 -4.1038,-1.1725 -7.2026,-0.71188 -2.5962,0.41876 -5.1506,0.96314 -7.7469,1.46564 -2.345,0.46063 -5.0669,1.59126 -7.5375,1.17251 -3.4338,-0.54438 -1.3401,-3.3919 1.1306,-3.8944 -2.0938,-1.38189 -3.8107,-1.67502 -6.1976,-0.96314 -1.9262,0.58626 -4.2294,2.63815 -6.2394,1.63314 0.1257,-0.37688 0,-0.87938 0.2094,-1.34001 -2.7219,0.79563 -22.61256,5.90442 -22.11006,7.66318 l -1.2144,0.5025 c -0.8794,4.10378 -5.9463,9.50569 -9.9663,13.40009 -2.0938,2.05189 -4.397,3.81066 -6.6163,5.65317 -1.6751,1.42376 -7.1188,5.19253 -5.1926,0.0838 -2.8894,2.93127 -4.4388,8.37506 -7.1188,11.97633 -1.3819,1.84251 -3.685,5.02504 -5.5275,6.40692 -2.84751,2.17751 -3.18251,-0.20938 -1.63321,-2.55439 -2.5125,1.84251 -4.3969,4.69003 -5.4019,7.49567 -0.67,2.01002 -1.5075,8.62631 -4.4806,8.04006 -0.1256,-0.20938 -0.2094,-0.54438 -0.3769,-0.83751 -1.6331,3.01502 -1.0469,5.69504 -1.9681,8.96131 -0.7957,2.93127 -2.9313,5.82067 -4.6063,8.33319 -3.0988,4.60628 -7.5376,12.52071 -12.8557,14.61447 0.9212,-3.09877 -3.015,-15.36823 -7.747,-12.93946 2.5126,2.68002 5.737,7.37005 3.1826,11.05507 -2.1776,3.09878 -7.4957,4.06191 -10.3851,6.4488 -3.35,2.80564 -4.8157,7.16067 -8.0819,10.09187 -1.5494,1.3819 -4.5644,2.5963 -6.8676,3.9782 -0.6281,-0.5863 -1.5075,-1.2143 -1.8844,-2.01 -0.5025,-1.0888 0.084,-2.3451 0.1257,-3.5176 0,-1.2143 -0.084,-2.59618 -0.5025,-3.72681 -0.6701,-2.01002 -1.4657,-0.92126 -1.4657,0.8375 0,2.51252 1.1725,5.36001 -0.084,7.66311 -2.3031,3.9782 -2.01,3.1825 -2.5125,3.6432 -0.8794,-4.3132 -2.2194,-8.417 -2.9731,-12.98132 -3.5176,-22.27765 -5.1088,-46.18844 -5.1088,-69.26172 0,-11.51571 0.335,-23.82704 0.7118,-35.71962 0.1257,-3.93628 0.7119,-15.45199 0.8794,-24.03642 4.8576,-5.73691 5.3601,-14.0701 4.3969,-21.31452 6.1976,4.31315 14.1958,9.21256 20.9377,12.52071 7.4119,3.64315 12.6463,4.0619 20.8957,4.85753 5.5276,0.50251 9.422,0.0419 14.5726,-1.34001 5.0251,-1.34 12.64641,3.01503 16.20581,0.37688 3.8525,-2.84752 6.8675,-3.64315 11.6413,-3.93627 3.3919,-0.16751 13.1489,1.005 15.2007,-1.54939 -3.685,0.79563 -6.365,-4.98316 -13.6513,-4.52253 -5.6532,0.37688 -8.6263,0.46063 -13.5257,2.84752 -4.52261,2.21939 -9.71511,2.68002 -14.86571,2.51252 -9.2545,-0.33501 -18.5508,1.92626 -25.544,-10.97133 2.0938,-0.0838 2.4288,1.50751 4.1038,2.21939 1.5075,0.62813 3.8525,0.5025 5.5275,0.41875 3.4757,-0.1675 7.412,-0.54438 10.6364,-1.34001 10.5525,-2.51251 15.8707,6.57442 20.05821,2.97315 -0.7956,0.29313 -1.675,0.29313 -2.5544,-0.12563 -4.31311,-1.96814 -8.62631,-4.35503 -12.98131,-6.36504 -3.8107,-1.71689 -7.0769,-4.89941 -11.3482,-5.65316 -2.6381,-0.50251 -5.4438,-0.29313 -8.0819,-0.83751 -2.6801,-0.54438 -12.6045,-3.18252 -14.782,-4.3969 -1.675,-0.92126 -3.6432,-2.80565 -5.1925,-2.8894 3.5594,-4.31315 12.06,-3.8944 16.8757,-6.65817 5.8207,-3.3919 8.9613,-8.37506 12.3532,-13.94447 5.025,-8.333184 11.432,-16.456994 17.2945,-24.036424 1.4238,-1.84251 2.3031,-3.8944 4.94131,-3.8944 2.0937,0 5.1506,1.38189 7.4119,1.67501 3.8107,0.58626 9.3801,0 12.6882,-2.42876 1.005,-0.71188 1.4657,-1.80064 2.3032,-2.51252 1.3818,-1.21438 0.6281,-0.79563 2.3031,-1.29813 2.1775,-0.67001 3.35,-0.62813 5.1088,-3.01502 2.68,-3.64315 4.1038,-8.12381 3.6431,-12.89759 -0.4606,-4.48066 -0.5443,-9.46382 -3.2244,-12.98134 -1.5075,-1.96814 -3.5175,-2.47064 -5.4438,-3.8944 -1.7168,-1.29814 -3.4337,-3.09878 -5.2344,-4.18753 -7.2444,4.94128 -6.03,17.42012 -17.5038,12.98134 -4.10381,-1.59126 -7.49571,-2.13564 -11.97641,-2.59627 -4.3969,-0.46063 -8.1238,0.96313 -12.2275,0.29313 0.2093,-2.17752 1.2981,-4.18753 1.5912,-6.4488 0.2931,-1.84251 -0.9631,-5.52754 -0.042,-6.82567 1.2982,-1.71689 3.685,-0.83751 5.3182,-2.84752 1.0469,-1.34001 2.3031,-4.2294 2.9312,-5.90442 1.6332,-4.10377 1.3401,-10.92945 -0.9631,-14.65635 -1.8844,-3.0568901 -6.365,-7.0769291 -9.8407,-7.3700591 -6.1975,-0.5025 -7.4538,3.978169 -9.7569,8.3750691 -1.5913,0.0419 -4.4807,-0.37688 -5.7369,0.0419 -1.8844,0.62813 -1.5913,2.47064 -3.5176,2.88939 0.2094,-0.29313 0.2094,-2.01001 0.8794,-1.84251 -4.9831,-1.29814 -7.2444,-5.7369201 -11.8926,-6.9513091 -4.4387,-1.13063 -12.1438,0.20938 -16.2057,-1.96814 0.3769,-0.96313 0.5444,-2.05189 0.5444,-3.09877 -2.8057,-1.54937997 -7.5376,-2.01000997 -10.6363,-1.38187997 -5.2344,1.13062997 -4.9832,2.84751997 -5.2344,7.74692897 -3.6851,0.33501 -6.9095,-0.879389 -10.3432,-1.507519 -3.4757,-0.62813 -6.1138,0.41876 -9.3801,1.214399 -5.7369,1.46563 -14.2795,-1.968149 -19.0951,2.5125101 0.1256,-1.8006301 -0.2094,-2.8475191 -0.7957,-4.1037791 -3.6431,3.685029 -8.3332,4.2294091 -12.1438,6.8675491 -2.3869,1.59126 -6.23942,9.42194 -8.751943,7.70506 -1.88439,1.67501 -4.64816,5.02503 -6.53255,6.11379 -2.51251,1.46563 -7.1188,1.88439 -9.96632,2.63814 -3.18252,0.87938 -5.94629,2.01002 -9.08693,-0.46063 -1.21439,-0.96313 -1.67501,-3.51752 -3.64315,-2.59626 -1.08876,0.5025 -1.21439,3.18252 -1.34001,4.2294 -4.39691,-0.20938 -7.24443,0.62813 -8.08193,5.10878 4.18753,-1.50751 7.24442,3.2244 10.00819,5.69504 3.14065,2.84752 6.40692,5.90442 10.72008,5.82067 -0.54438,0.87938 -1.34001,1.42376 -2.2194,1.88439 -2.05188,1.04688 -4.3969,0.67 -6.40691,2.34501 -1.80064,1.46564 -3.01502,2.93127 -4.94129,4.18753 -3.35002,2.21939 -5.44379,6.70005 -9.46381,8.24943 -2.47064,0.96313 -4.39691,0.0838 -6.15567,2.5544 -1.34001,1.84251 -2.05189,4.64815 -2.17752,6.90942 -0.41875,8.33318 5.69504,3.60127 10.3432,6.70004 -1.04688,0.46063 -2.30314,0.50251 -3.18252,1.04689 -0.58626,0.335 -1.63314,1.71688 -2.01001,1.88438 -2.2194,0.92126 -3.5594,-0.46062 -5.98817,0.46063 -2.42877,0.96313 -3.3919,2.84752 -4.60628,4.81566 -0.29313,0.41875 -0.0837,1.38188 -0.37688,1.88439 -0.29313,0.5025 -1.42376,0.20937 -1.50751,0.46063 -0.46063,1.34001 -0.83751,1.04688 0,2.47064 1.17251,2.01001 5.06691,1.84251 7.03505,1.67501 10.63632,-0.58625 18.92763,-0.79563 27.59581,5.736914 7.66318,5.82067 14.69823,12.26946 21.90078,18.2995 3.559403,2.97315 6.867593,6.03005 10.761993,8.37506 3.6012,2.13564 7.6213,6.07192 11.6413,7.1188 l -1.2981,1.59126 c -3.2244,0.71188 -5.8207,2.84752 -9.087,3.5594 -3.5594,0.83751 -7.32816,1.08876 -11.013193,1.38189 -10.38507,0.71188 -20.43514,2.38689 -30.77833,0.335 -8.96131,-1.80064 -22.31953,-2.38689 -27.80519,6.36504 3.3919,-0.54438 5.86254,-2.13564 10.00819,-1.88439 3.68503,0.20938 7.16068,0.96314 11.0132,1.29814 7.32818,0.62813 10.38507,-2.34502 21.14702,0.92125 4.89941,1.46564 10.1757,1.08876 15.49386,1.38189 5.066943,0.20937 10.636343,-0.5025 15.786943,-0.46063 5.0251,0 9.087,0 13.7351,-1.67501 4.2294,-1.54939 6.6582,-4.39691 12.6045,-8.12381 1.2981,0.12563 2.5544,-0.1675 3.5594,-0.92125 -0.1675,0.37687 -0.5025,0.79563 -0.5863,1.1725 -0.4187,2.01002 -2.8056,3.89441 -3.35,6.1138 -0.5862,2.47064 -0.4606,5.48566 -0.335,8.08193 0.2931,4.98316 1.4238,10.09194 2.8475,14.65635 0.6282,2.05189 1.0888,4.85753 2.5544,6.49067 1.5913,1.80063 3.6432,1.80063 5.5276,2.93127 3.4756,2.09376 2.5544,9.25444 6.4906,10.55257 0.1675,-3.2244 0.1675,-6.23942 0.9632,-9.12881 -0.7119,14.48885 -1.675,29.10332 -1.1307,43.08967 0.9213,23.95266 2.6801,46.81657 5.1926,70.64361 1.1725,11.2645 2.4706,21.9008 2.4706,33.7515 0,5.5694 -0.335,9.2126 -0.5444,12.7301 -0.67,-0.9631 -1.2143,-2.0519 -1.675,-3.1407 -1.0469,-2.5125 -2.2194,-4.6062 -3.8944,-6.8256 -1.5912,-2.1775 -4.1038,-2.9732 -5.3181,0 -0.7119,1.8844 0.2093,3.9781 0.4606,5.9463 -1.5075,-2.0519 -3.5594,-4.0619 -4.7319,-6.1138 -1.7169,-2.9732 -2.9732,-7.9563 -6.6163,-9.6313 -3.685,-1.7169 -7.6213,-1.6751 -10.6363,-5.2345 -3.4757,-4.1037 -1.8844,-7.4119 2.8894,-8.5006 -1.8844,-2.01 -8.082,-3.8107 -8.7101,0.3768 -7.2444,0.5444 -9.2126,-7.035 -13.9445,-10.88756 -7.1606,-5.86254 -16.959473,-6.99317 -20.644493,-16.12199 -3.51752,-8.66818 -4.2294,-19.76513 -9.00319,-28.01456 -0.1675,0.87938 -0.62813,1.54938 -0.71188,2.47064 -4.60628,-5.52754 -10.00819,-7.53755 -17.08511,-7.66318 3.14064,3.8944 -8.08193,1.67501 -9.38007,1.34001 -4.35503,-1.38188 -7.57943,-3.85253 -12.43696,-3.47565 6.6163,2.30314 -0.37688,4.31316 -5.86254,3.85253 -4.2294,-0.37688 -8.751929,0.67 -13.023209,1.29813 2.97314,1.00501 0.29312,4.35503 -1.92627,5.23441 -3.85252,1.63314 -4.18753,0.12563 -7.20255,-2.21939 C 12.520708,249.72288 1.92626,246.16348 0,250.18351 l 4.522528,-0.335 c 1.96814,-0.0419 5.69504,2.88939 5.23441,5.82066 4.18753,-1.88438 4.39691,3.89441 6.70005,4.94129 1.71688,-1.17251 2.21939,-3.43378 4.81566,-2.5544 1.21438,0.46063 2.01001,0.83751 2.84752,1.54939 0.5025,0.46063 1.1725,2.01001 1.54938,2.51252 1.50751,2.09376 1.13063,3.3919 3.7269,5.02503 1.381889,0.87938 10.594449,4.10378 2.847519,3.81065 3.5594,4.48066 9.71507,9.75695 8.54256,15.53573 -0.58625,0.67001 -1.50751,-0.54437 -2.13564,-0.87938 0.71188,6.36505 4.14565,9.00319 12.64634,15.87073 -1.71689,2.0938 -3.64315,0.6282 -5.73692,0.2932 1.67501,3.2244 6.53255,4.1456 9.50569,4.9831 3.7269,1.0469 6.82567,3.35 11.05508,3.1825 -0.62813,0.335 -1.59126,1.0051 -2.47064,1.2144 1.04688,0.2932 2.63814,0.5444 3.81065,0.5444 4.5644,-0.042 9.84069,-3.9363 13.94447,-5.8625 4.60628,-2.1357 8.96131,-6.8676 13.94447,-5.5276 2.17751,0.5863 4.64816,1.675 6.825673,2.68 2.80562,1.2982 2.38692,2.0938 3.97812,4.1876 3.0569,4.1456 7.747,4.02 11.8926,5.9044 -1.1725,4.8994 -0.4187,10.5526 -0.5444,15.4938 0.042,0 1.5494,-10.1756 5.067,-11.9763 2.3868,-1.1725 9.4638,4.6063 11.725,6.0719 4.1038,2.5963 7.5376,4.8994 11.0132,8.4588 1.9263,1.9682 5.4857,6.0301 8.6682,7.5376 0,0.2931 0.042,0.5862 0.1256,0.9631 0.3769,1.2144 0.9632,2.5963 1.6332,3.685 1.5494,2.3032 3.1406,4.5645 4.8575,6.6582 1.0888,1.3819 2.2194,2.5963 3.7269,3.1407 0,0.084 0,0.1675 0,0.335 1.1306,23.7851 3.8107,55.3591 3.8107,79.6049 0,11.6832 -3.4757,58.8348 -5.6951,69.1361 3.1407,1.2981 6.8257,0.4606 9.9663,1.5075 1.3819,-18.467 4.1876,-36.0965 5.067,-54.7729 0.4606,-9.8407 -0.3769,-19.807 0.1675,-29.7314 0.3768,-7.0351 3.5175,-20.8958 0.5443,-26.8421 -0.5862,-0.1675 -0.5443,0.5863 -1.0887,0.5444 -2.345,-16.9176 -2.7219,-33.0396 -1.8425,-48.9522 0.4606,-8.1238 2.0519,-17.5458 2.9731,-25.7952 3.0988,-1.8006 6.7419,-5.4019 7.3282,-6.4907 0.5862,-1.1725 0.7119,-2.8475 0.4606,-4.4387 0.5025,-0.6282 0.9213,-1.1307 1.1725,-1.4238 5.4438,-5.36 12.2276,-8.45885 18.5926,-12.2695 4.0619,-2.42876 5.8626,-3.35002 10.7201,-3.35002 1.5913,0 4.3969,-0.41875 5.1088,1.46564 0.5863,1.50751 -1.0888,4.02002 -2.01,4.3969 2.5544,-0.83751 5.025,-2.93127 4.6481,-5.86254 -0.3768,-2.72189 -3.6431,-5.86254 -6.5325,-4.98316 3.35,-2.55439 7.0351,-4.69003 10.9295,-5.98817 4.3969,-1.42375 9.715,-0.46062 14.3632,-0.96313 3.72691,-0.41875 7.41191,-0.96313 10.92941,-2.17751 3.4338,-1.17251 6.4907,-3.51753 10.0082,-4.56441 4.2294,-1.29813 5.9044,0.79563 9.5895,2.42877 3.9362,1.71689 5.9044,3.43377 10.2594,1.63313 4.02,-1.63313 6.9513,-1.63313 11.01316,-0.79563 3.5594,0.79563 6.5744,-1.21438 10.1338,-1.42376 1.7169,-0.0837 4.3551,-0.1675 5.7369,0.54438 1.4238,0.71188 2.5126,2.47065 4.0201,3.30815 2.8475,1.59126 7.1188,4.14565 10.385,3.8944 -0.5862,-0.62813 -1.5075,-1.04688 -2.1775,-1.63313 1.1725,-1.84252 5.0251,-0.29313 6.8676,-0.50251 2.0519,-0.20937 3.8944,-1.71688 5.8625,-2.42876 4.4807,-1.54939 7.8726,-2.51252 11.1389,-6.32317 -0.7119,0.29313 -3.5594,1.34001 -4.3551,0.67 -1.4237,-1.13063 1.34,-2.59627 2.2194,-3.09877 2.6382,-1.50751 5.5694,-2.59627 8.1238,-4.2294 2.345,-1.50751 4.1038,-2.59627 6.6163,-3.5594 2.5963,-1.00501 4.1038,-2.80565 6.4907,-4.14566 -1.4238,0.16751 -2.8057,0.16751 -3.0988,-1.46563 1.005,-0.79563 2.68,-1.13063 3.9363,-1.96814 1.005,-0.62813 1.9681,-1.46563 2.8894,-2.05189 -1.34,0.29313 -2.7219,0.12563 -3.6432,-0.58625 2.0519,-1.54939 4.1457,-2.80565 5.3601,-5.31816 -1.7169,-0.83751 -2.9732,0 -4.1457,-1.96814 -1.0469,-1.71689 -0.7119,-3.51753 0.3769,-5.10879 1.0469,-1.54938 1.4656,-2.05189 2.1356,-3.68502 0.5863,-1.50751 1.005,-2.38689 2.4707,-3.35003 5.695,-3.64315 9.2125,-6.53254 12.4788,-12.64633 -3.685,0.1675 -9.4219,3.93627 -12.1438,1.17251 z"
     inkscape:connector-curvature="0"
     style="fill:#ff1493;stroke-width:0.41875288" /><path
     style="font-style:normal;font-variant:normal;font-weight:normal;font-stretch:normal;font-size:medium;line-height:1.25;font-family:'Cooper Black';-inkscape-font-specification:'Cooper Black, Normal';font-variant-ligatures:normal;font-variant-caps:normal;font-variant-numeric:normal;text-align:start;letter-spacing:0px;word-spacing:0px;writing-mode:lr-tb;text-anchor:start;fill:#000000;fill-opacity:1;stroke:none;stroke-width:2.5"
     d="m 149.84011,199.68054 c -0.39063,0 -0.92774,0.0977 -1.61133,0.29297 -2.21354,0.65104 -4.49218,1.0905 -6.83594,1.31836 -2.3112,0.19532 -6.00586,0.29297 -11.08398,0.29297 H 105.2112 c -3.64583,0 -6.10351,0.14649 -7.373045,0.43945 -1.009113,0.26042 -1.822918,0.79753 -2.441405,1.61133 -0.618493,0.8138 -0.927735,1.74154 -0.927735,2.78321 0,0.13919 0.03908,0.24885 0.04883,0.38086 -0.452022,-0.515 -0.93429,-1.01286 -1.479492,-1.47461 -1.953125,-1.66016 -4.26432,-2.83204 -6.933593,-3.51563 -2.636712,-0.71615 -6.119785,-1.07422 -10.449217,-1.07422 -1.822915,0 -3.857423,0.0325 -6.103518,0.0977 -7.16146,0.19531 -11.96289,0.29297 -14.404297,0.29297 -3.320313,0 -6.41276,-0.0651 -9.277343,-0.19532 -1.72526,-0.0976 -3.141275,-0.14648 -4.248047,-0.14648 -2.018228,0 -3.678385,0.45573 -4.980468,1.36719 -1.269532,0.91145 -1.904297,2.08333 -1.904297,3.51562 0,1.75782 1.074219,3.09245 3.222656,4.00391 1.855469,0.8138 3.027344,1.85547 3.515624,3.125 0.520835,1.23698 0.78125,3.75977 0.78125,7.56836 0,10.38411 -0.309245,19.12435 -0.927733,26.2207 -0.423177,4.55729 -0.813802,7.53581 -1.171875,8.93555 -0.358074,1.36719 -1.009115,2.3763 -1.953125,3.02734 -1.627605,1.10678 -2.652995,1.92058 -3.076172,2.44141 -0.423177,0.52083 -0.634766,1.23698 -0.634766,2.14844 0,1.39973 0.569662,2.60415 1.708985,3.61328 1.171875,1.0091 2.75065,1.51367 4.736328,1.51367 0.813803,0 2.164713,-0.0814 4.052733,-0.24415 2.115887,-0.13017 5.46875,-0.22782 10.058595,-0.29297 l 6.54297,-0.0488 c 0.976562,0.0326 3.61328,0.13023 7.910155,0.29298 4.720052,0.16275 7.682292,0.24415 8.88672,0.24415 6.831967,0 12.361907,-1.53728 16.61621,-4.58009 -0.01051,0.14084 -0.04883,0.24554 -0.04883,0.40039 0,1.33465 0.455728,2.3763 1.367188,3.125 0.91146,0.71615 2.197267,1.07422 3.857414,1.07422 h 41.40625 c 3.48308,0.0976 6.26628,0.3418 8.34961,0.73243 1.17188,0.1953 2.06706,0.29297 2.68555,0.29297 0.7487,0 1.36719,-0.19532 1.85547,-0.58595 0.48828,-0.35807 1.10677,-1.0905 1.85547,-2.19727 1.46484,-2.27863 2.70182,-4.8828 3.71094,-7.81249 0.0233,-0.0677 0.0358,-0.12812 0.0586,-0.19531 2.96368,3.10577 6.47143,5.58695 10.54199,7.42187 5.40365,2.4414 10.82357,3.6621 16.25977,3.6621 5.20833,0 10.22135,-1.1556 15.03906,-3.4668 2.05078,-0.97655 3.69466,-1.57877 4.93164,-1.80662 1.50626,-0.2967 2.63173,-0.62565 3.41797,-0.98633 0.0711,0.93475 0.40882,1.79745 1.04492,2.57813 0.7487,0.84635 1.70899,1.43227 2.88086,1.7578 2.76693,0.71615 7.16146,1.07422 13.18359,1.07422 6.77084,0 11.58854,-0.45572 14.45313,-1.3672 2.86458,-0.944 4.29687,-2.49022 4.29687,-4.63866 0,-1.6927 -0.8789,-3.10872 -2.63671,-4.24804 -0.8138,-0.55338 -1.33464,-0.91146 -1.5625,-1.07422 -1.23698,-1.10678 -1.85547,-3.10873 -1.85547,-6.00586 0,-3.54818 0.944,-5.32227 2.83203,-5.32227 0.61848,0 1.2858,0.30925 2.00195,0.92774 0.7487,0.58594 2.03451,1.85546 3.85742,3.80859 4.16667,4.52474 7.51954,8.52865 10.0586,12.01172 1.59505,2.18098 2.75065,3.54818 3.46679,4.10155 0.7487,0.5534 1.75781,0.83008 3.02735,0.83008 h 18.50585 c 3.79763,0 6.11398,-1.04093 6.97755,-3.10058 0.54645,1.95015 2.48925,3.30595 5.87403,4.04298 4.78515,1.04165 9.86327,1.5625 15.23437,1.5625 13.08593,0 19.6289,-2.21355 19.6289,-6.64063 0,-1.85548 -1.18815,-3.40169 -3.56445,-4.63867 -1.4323,-0.7487 -2.3763,-1.4974 -2.83202,-2.2461 -0.45575,-0.78125 -0.76498,-2.16472 -0.92775,-4.15039 -0.29298,-3.22266 -0.43945,-6.72201 -0.43945,-10.49805 0,-4.49218 0.53712,-7.86132 1.61132,-10.10742 1.10678,-2.27864 3.8737,-5.81055 8.30078,-10.5957 3.64585,-3.90625 6.15235,-6.38021 7.51955,-7.42188 1.36717,-1.07422 2.9785,-1.79036 4.83397,-2.14843 2.01823,-0.35807 3.43425,-0.8789 4.24805,-1.5625 0.8138,-0.6836 1.2207,-1.69271 1.2207,-3.02735 0,-1.04166 -0.35807,-2.01822 -1.07422,-2.92968 -0.68358,-0.91146 -1.5625,-1.52995 -2.6367,-1.85547 -1.69273,-0.52084 -5.35483,-0.78125 -10.98635,-0.78125 -9.96093,0 -14.9414,1.83919 -14.9414,5.51757 0,1.26954 0.32552,2.27865 0.97657,3.02735 0.91145,1.10677 1.43228,1.80663 1.5625,2.09961 0.16275,0.29296 0.24413,0.73242 0.24413,1.31836 0,0.944 -0.63478,2.21354 -1.9043,3.80859 -1.04165,1.30208 -1.888,2.21354 -2.53905,2.73438 -0.65105,0.48828 -1.31838,0.73242 -2.00195,0.73242 -1.07423,0 -2.21355,-0.83008 -3.41798,-2.49024 -1.85547,-2.57161 -2.7832,-4.44336 -2.7832,-5.61523 0,-0.58594 0.52083,-1.54623 1.5625,-2.88086 0.71615,-0.87891 1.07423,-1.74154 1.07423,-2.58789 0,-1.10677 -0.472,-2.08333 -1.41603,-2.92969 -0.91145,-0.8789 -2.13217,-1.46484 -3.6621,-1.75781 -3.35287,-0.68359 -8.2194,-1.02539 -14.59962,-1.02539 -6.29615,0 -11.0372,0.34079 -14.38475,0.99121 -0.71925,-0.65209 -1.68033,-1.15627 -2.91018,-1.49414 -2.40885,-0.65105 -6.11977,-0.97656 -11.1328,-0.97656 -6.28255,0 -10.72591,0.50455 -13.33008,1.51367 -2.60416,0.97656 -3.90625,2.66927 -3.90625,5.07812 0,0.6836 0.21159,1.43229 0.63477,2.2461 0.61848,1.17187 0.92773,2.05078 0.92773,2.63672 0,1.10677 -1.2207,3.17382 -3.66211,6.20117 -2.11588,2.60416 -3.5319,4.23177 -4.24804,4.88281 -0.6836,0.65104 -1.39975,0.97656 -2.14844,0.97656 -1.23698,0 -1.85547,-1.36719 -1.85547,-4.10156 0,-1.66016 0.21159,-3.35286 0.63477,-5.07812 0.45573,-1.72526 0.94401,-2.81576 1.46484,-3.27149 1.43229,-1.13933 2.31119,-1.9694 2.63672,-2.49023 0.35807,-0.55338 0.53711,-1.31836 0.53711,-2.29493 0,-2.34374 -1.10677,-3.97135 -3.32032,-4.88281 -2.47395,-0.97656 -6.26627,-1.46484 -11.37695,-1.46484 -5.01302,0 -9.17968,0.32552 -12.5,0.97656 -2.50651,0.48828 -4.32943,1.20443 -5.46875,2.14844 -0.41483,0.34371 -0.72742,0.74128 -0.99121,1.16699 -0.33576,-0.0685 -0.67597,-0.12207 -1.03027,-0.12207 -0.52084,0 -0.99284,0.0488 -1.41602,0.14648 -1.30208,0.29297 -2.24609,0.43946 -2.83203,0.43946 -0.8138,0 -2.26237,-0.48829 -4.3457,-1.46485 -4.42709,-2.08333 -9.01693,-3.125 -13.76953,-3.125 -5.07812,0 -10.00977,1.04167 -14.79493,3.125 -6.11945,2.66339 -11.10089,6.49493 -14.96582,11.47461 0.071,-0.52205 0.11719,-1.06965 0.11719,-1.66015 0,-4.19922 -1.07421,-7.77996 -3.22265,-10.74219 -1.30208,-1.82292 -2.79949,-2.73438 -4.49219,-2.73438 z M 96.4905,209.79285 c 0.244172,0.1195 0.472447,0.25064 0.761717,0.33691 1.236975,0.35808 2.05078,0.66732 2.441408,0.92774 0.390625,0.26042 0.748695,0.71615 1.074215,1.36719 1.5625,3.28776 2.34375,11.21419 2.34375,23.77929 0,2.46767 -0.062,4.73635 -0.15625,6.9043 -0.5462,-1.98914 -1.43069,-3.77636 -2.73926,-5.3125 -2.18098,-2.53907 -4.606113,-4.34571 -7.275385,-5.41992 -1.367188,-0.55339 -2.050783,-1.23698 -2.05078,-2.05078 0,-0.7487 0.569662,-1.57878 1.708982,-2.49024 1.595055,-1.26953 2.86458,-2.96224 3.808595,-5.07812 0.944005,-2.14844 1.416015,-4.34571 1.416015,-6.5918 0,-2.37783 -0.452005,-4.49767 -1.333007,-6.37207 z m -28.500978,0.51269 c 2.14844,0 3.808595,0.84635 4.98047,2.53907 1.171873,1.66015 1.757813,4.02018 1.757813,7.08008 0,3.15755 -0.569665,5.48502 -1.708985,6.98242 -1.139328,1.46484 -2.913413,2.19726 -5.322265,2.19726 -1.009115,0 -1.725258,-0.32552 -2.148438,-0.97656 -0.390625,-0.65104 -0.585937,-1.77409 -0.585937,-3.36914 v -10.05859 c 0,-1.66016 0.211587,-2.79949 0.634765,-3.41797 0.455727,-0.65105 1.253252,-0.97657 2.392577,-0.97657 z m 63.344728,0.60547 c 5.01302,0 8.61003,0.37435 10.79101,1.12305 2.21355,0.71614 4.03647,2.16471 5.46875,4.3457 1.00912,1.52995 1.80664,2.52279 2.39258,2.97852 0.6185,0.42318 1.46485,0.63476 2.53906,0.63476 0.63644,0 1.20062,-0.12244 1.72364,-0.32226 -2.57159,4.74093 -3.86719,9.84482 -3.86719,15.3125 0,4.24847 0.85739,8.37265 2.5293,12.37793 -0.44287,0.66471 -0.90898,1.47448 -1.41114,2.51465 -1.5625,3.28776 -3.58073,5.5664 -6.05468,6.83593 -2.47396,1.23698 -6.15235,1.85547 -11.03516,1.85547 -3.15755,0 -5.41992,-0.17903 -6.78711,-0.53711 -1.33463,-0.39062 -2.13216,-1.07422 -2.39258,-2.05078 -0.22786,-0.78125 -0.45573,-2.3763 -0.68359,-4.78515 -0.19531,-2.44141 -0.29297,-4.42709 -0.29297,-5.95703 0,-2.50651 0.26042,-4.2155 0.78125,-5.12696 0.55339,-0.94401 1.5625,-1.41601 3.02734,-1.41601 3.8086,0 5.95703,1.83919 6.44532,5.51757 0.22786,1.79037 0.55338,2.97852 0.97656,3.56446 0.42317,0.55338 1.18815,0.83008 2.29492,0.83008 1.79037,0 3.125,-0.89518 4.00391,-2.68555 1.59504,-3.28776 2.39258,-7.50326 2.39258,-12.64649 0,-2.60416 -0.24415,-5.0944 -0.73243,-7.4707 -0.45572,-2.40885 -1.02539,-4.08528 -1.70898,-5.0293 -0.94401,-1.26953 -2.08334,-1.90429 -3.41797,-1.90429 -0.91146,0 -1.70898,0.29296 -2.39258,0.8789 -0.65104,0.52084 -1.10677,1.13933 -1.36719,1.85547 -0.22786,0.6836 -0.45572,1.9694 -0.68359,3.85742 -0.16276,1.46485 -0.55338,2.49024 -1.17187,3.07618 -0.61849,0.55338 -1.61133,0.83007 -2.97852,0.83007 -2.76693,0 -4.47591,-0.22786 -5.12695,-0.68359 -0.65105,-0.48829 -0.97657,-1.70899 -0.97657,-3.66211 0,-4.94792 0.0325,-8.02409 0.0977,-9.22851 0.0976,-1.20443 0.35807,-2.16472 0.78125,-2.88086 0.8138,-1.33464 3.09245,-2.00196 6.83594,-2.00196 z m 144.25292,0.3125 c 0.67017,0.37283 1.67337,0.82776 3.33985,1.44043 1.5625,0.58594 3.1901,1.70899 4.88282,3.36914 3.90625,3.84115 7.69855,8.1543 11.37695,12.93946 1.7578,2.3112 2.89713,4.19921 3.41798,5.66406 0.52082,1.43229 0.78125,3.45052 0.78125,6.05469 -3e-5,8.36588 -0.52085,13.67187 -1.5625,15.91797 -0.45575,1.00912 -1.61135,1.83919 -3.4668,2.49023 -1.57093,0.55808 -2.63948,1.34583 -3.2129,2.36328 -0.1442,-0.97678 -0.4912,-1.80149 -1.04493,-2.47558 -0.71612,-0.91146 -1.95312,-1.74154 -3.71092,-2.49024 -1.237,-0.55339 -2.16473,-1.07422 -2.7832,-1.5625 -0.6185,-0.52083 -1.74155,-1.72526 -3.36915,-3.61328 L 261.9739,230.17859 c -1.20443,-1.39974 -2.03451,-2.50651 -2.49024,-3.32031 -0.42318,-0.81381 -0.63476,-1.62761 -0.63476,-2.44141 0,-1.49739 0.96028,-3.15755 2.88086,-4.98047 l 5.22461,-5.02929 c 1.36717,-1.30209 2.47395,-2.13216 3.3203,-2.49024 0.87892,-0.39064 2.181,-0.60223 3.90625,-0.63476 0.57187,-0.008 0.93005,-0.0406 1.40625,-0.0586 z m -89.51171,2.71485 c 3.45052,0 6.75456,1.10676 9.91211,3.32031 1.26953,0.91145 2.34375,1.93684 3.22265,3.07617 0.87891,1.10677 2.01823,2.94596 3.41797,5.51758 0.97657,1.82291 1.98568,3.09245 3.02735,3.80859 1.04166,0.71615 2.39258,1.07422 4.05273,1.07422 1.82292,0 3.4668,-0.48827 4.93164,-1.46484 0.9311,-0.62821 1.68958,-1.39102 2.29981,-2.27051 0.0968,2.67827 0.16113,5.60865 0.16113,9.03809 0,5.23157 -0.16426,9.46276 -0.46875,12.83691 -0.20345,-0.63476 -0.51107,-1.21256 -0.91797,-1.7334 -0.8138,-1.07422 -1.79036,-1.61133 -2.92969,-1.61133 -0.78124,0 -1.79036,0.58594 -3.02734,1.75782 -1.43229,1.39974 -3.45052,2.53906 -6.05469,3.41797 -2.57161,0.8789 -5.17578,1.31835 -7.8125,1.31835 -7.16146,0 -12.66276,-3.10872 -16.5039,-9.32617 -2.83203,-4.65494 -4.24805,-9.7819 -4.24805,-15.38086 0,-4.06901 0.97656,-7.30794 2.92969,-9.71679 1.98567,-2.44141 4.65494,-3.66211 8.00781,-3.66211 z M 68.770772,238.5282 c 5.533855,0 8.300783,3.61328 8.300783,10.83984 0,5.79428 -2.473963,8.69141 -7.421875,8.69141 -1.888028,0 -3.14128,-0.69987 -3.759765,-2.09961 -0.618493,-1.39974 -0.927735,-4.23177 -0.927735,-8.49609 v -4.63867 c 0,-1.6276 0.276695,-2.75065 0.830077,-3.36914 0.553388,-0.61849 1.546223,-0.92774 2.978515,-0.92774 z m 32.670898,17.73438 c -0.25772,1.10137 -0.60483,1.96664 -1.06445,2.54882 -0.33307,0.45201 -0.8536,0.83395 -1.464845,1.18164 1.002922,-1.2048 1.850545,-2.44848 2.529295,-3.73046 z"
     id="svg-becky"
     inkscape:connector-curvature="0" /></svg>