<?xml version="1.0" encoding="UTF-8" standalone="no"?>
<!-- Generator: Adobe Illustrator 18.0.0, SVG Export Plug-In . SVG Version: 6.00 Build 0)  -->

<svg
   xmlns:dc="http://purl.org/dc/elements/1.1/"
   xmlns:cc="http://creativecommons.org/ns#"
   xmlns:rdf="http://www.w3.org/1999/02/22-rdf-syntax-ns#"
   xmlns:svg="http://www.w3.org/2000/svg"
   xmlns="http://www.w3.org/2000/svg"
   xmlns:sodipodi="http://sodipodi.sourceforge.net/DTD/sodipodi-0.dtd"
   xmlns:inkscape="http://www.inkscape.org/namespaces/inkscape"
   version="1.1"
   x="0px"
   y="0px"
   viewBox="0 0 384.62448 503.69651"
   enable-background="new 659 0 931 1200"
   xml:space="preserve"
   width="153.84979"
   height="201.47861"
   id="svg3"
   sodipodi:docname="becky-text-3.svg"
   inkscape:version="0.92.1 r15371"><metadata
     id="metadata9"><rdf:RDF><cc:Work
         rdf:about=""><dc:format>image/svg+xml</dc:format><dc:type
           rdf:resource="http://purl.org/dc/dcmitype/StillImage" /><dc:title></dc:title></cc:Work></rdf:RDF></metadata><defs
     id="defs7" /><sodipodi:namedview
     pagecolor="#ffffff"
     bordercolor="#666666"
     borderopacity="1"
     objecttolerance="10"
     gridtolerance="10"
     guidetolerance="10"
     inkscape:pageopacity="0"
     inkscape:pageshadow="2"
     inkscape:window-width="1366"
     inkscape:window-height="706"
     id="namedview5"
     showgrid="false"
     inkscape:zoom="4.9120931"
     inkscape:cx="128.24478"
     inkscape:cy="102.51423"
     inkscape:window-x="-8"
     inkscape:window-y="-8"
     inkscape:window-maximized="1"
     inkscape:current-layer="svg3"
     scale-x="2"
     fit-margin-top="0"
     fit-margin-left="0"
     fit-margin-right="0"
     fit-margin-bottom="0" /><path
     id="svg-rose"
     d="m 372.48109,218.86073 c 0.1675,-0.29313 0.2931,-0.96314 0.4187,-1.17251 -1.34,-0.0838 -2.8894,0.29312 -3.8944,-0.50251 0.4607,-0.335 0.7957,-0.96313 1.4238,-1.21438 -1.6331,0.12563 -4.6063,1.21438 -6.1976,0.5025 -2.1775,-1.005 -0.4187,-2.13564 0.2094,-3.85252 -2.3869,-0.20938 -13.3582,3.18252 -7.5794,-1.71689 -2.3869,-1.42376 -5.7369,-0.79563 -8.6263,-0.96313 -1.2144,-0.0837 -3.6013,-0.0837 -2.6382,-2.13564 0.4188,-0.87938 3.1826,-1.46563 4.0619,-1.80064 0,-0.12562 0,-0.54438 0,-0.62813 -4.0619,-0.62813 -8.4588,-1.21438 -12.2694,-2.51251 -1.005,-0.33501 -4.69,-1.84252 -5.067,-2.93127 -0.7118,-2.09377 2.722,-1.88439 3.9782,-2.3869 -2.8475,-0.79563 -4.1038,-1.1725 -7.2026,-0.71188 -2.5962,0.41876 -5.1506,0.96314 -7.7469,1.46564 -2.345,0.46063 -5.0669,1.59126 -7.5375,1.17251 -3.4338,-0.54438 -1.3401,-3.3919 1.1306,-3.8944 -2.0938,-1.38189 -3.8107,-1.67502 -6.1976,-0.96314 -1.9262,0.58626 -4.2294,2.63815 -6.2394,1.63314 0.1257,-0.37688 0,-0.87938 0.2094,-1.34001 -2.7219,0.79563 -22.61256,5.90442 -22.11006,7.66318 l -1.2144,0.5025 c -0.8794,4.10378 -5.9463,9.50569 -9.9663,13.40009 -2.0938,2.05189 -4.397,3.81066 -6.6163,5.65317 -1.6751,1.42376 -7.1188,5.19253 -5.1926,0.0838 -2.8894,2.93127 -4.4388,8.37506 -7.1188,11.97633 -1.3819,1.84251 -3.685,5.02504 -5.5275,6.40692 -2.84751,2.17751 -3.18251,-0.20938 -1.63321,-2.55439 -2.5125,1.84251 -4.3969,4.69003 -5.4019,7.49567 -0.67,2.01002 -1.5075,8.62631 -4.4806,8.04006 -0.1256,-0.20938 -0.2094,-0.54438 -0.3769,-0.83751 -1.6331,3.01502 -1.0469,5.69504 -1.9681,8.96131 -0.7957,2.93127 -2.9313,5.82067 -4.6063,8.33319 -3.0988,4.60628 -7.5376,12.52071 -12.8557,14.61447 0.9212,-3.09877 -3.015,-15.36823 -7.747,-12.93946 2.5126,2.68002 5.737,7.37005 3.1826,11.05507 -2.1776,3.09878 -7.4957,4.06191 -10.3851,6.4488 -3.35,2.80564 -4.8157,7.16067 -8.0819,10.09187 -1.5494,1.3819 -4.5644,2.5963 -6.8676,3.9782 -0.6281,-0.5863 -1.5075,-1.2143 -1.8844,-2.01 -0.5025,-1.0888 0.084,-2.3451 0.1257,-3.5176 0,-1.2143 -0.084,-2.59618 -0.5025,-3.72681 -0.6701,-2.01002 -1.4657,-0.92126 -1.4657,0.8375 0,2.51252 1.1725,5.36001 -0.084,7.66311 -2.3031,3.9782 -2.01,3.1825 -2.5125,3.6432 -0.8794,-4.3132 -2.2194,-8.417 -2.9731,-12.98132 -3.5176,-22.27765 -5.1088,-46.18844 -5.1088,-69.26172 0,-11.51571 0.335,-23.82704 0.7118,-35.71962 0.1257,-3.93628 0.7119,-15.45199 0.8794,-24.03642 4.8576,-5.73691 5.3601,-14.0701 4.3969,-21.31452 6.1976,4.31315 14.1958,9.21256 20.9377,12.52071 7.4119,3.64315 12.6463,4.0619 20.8957,4.85753 5.5276,0.50251 9.422,0.0419 14.5726,-1.34001 5.0251,-1.34 12.64641,3.01503 16.20581,0.37688 3.8525,-2.84752 6.8675,-3.64315 11.6413,-3.93627 3.3919,-0.16751 13.1489,1.005 15.2007,-1.54939 -3.685,0.79563 -6.365,-4.98316 -13.6513,-4.52253 -5.6532,0.37688 -8.6263,0.46063 -13.5257,2.84752 -4.52261,2.21939 -9.71511,2.68002 -14.86571,2.51252 -9.2545,-0.33501 -18.5508,1.92626 -25.544,-10.97133 2.0938,-0.0838 2.4288,1.50751 4.1038,2.21939 1.5075,0.62813 3.8525,0.5025 5.5275,0.41875 3.4757,-0.1675 7.412,-0.54438 10.6364,-1.34001 10.5525,-2.51251 15.8707,6.57442 20.05821,2.97315 -0.7956,0.29313 -1.675,0.29313 -2.5544,-0.12563 -4.31311,-1.96814 -8.62631,-4.35503 -12.98131,-6.36504 -3.8107,-1.71689 -7.0769,-4.89941 -11.3482,-5.65316 -2.6381,-0.50251 -5.4438,-0.29313 -8.0819,-0.83751 -2.6801,-0.54438 -12.6045,-3.18252 -14.782,-4.3969 -1.675,-0.92126 -3.6432,-2.80565 -5.1925,-2.8894 3.5594,-4.31315 12.06,-3.8944 16.8757,-6.65817 5.8207,-3.3919 8.9613,-8.37506 12.3532,-13.94447 5.025,-8.333184 11.432,-16.456994 17.2945,-24.036424 1.4238,-1.84251 2.3031,-3.8944 4.94131,-3.8944 2.0937,0 5.1506,1.38189 7.4119,1.67501 3.8107,0.58626 9.3801,0 12.6882,-2.42876 1.005,-0.71188 1.4657,-1.80064 2.3032,-2.51252 1.3818,-1.21438 0.6281,-0.79563 2.3031,-1.29813 2.1775,-0.67001 3.35,-0.62813 5.1088,-3.01502 2.68,-3.64315 4.1038,-8.12381 3.6431,-12.89759 -0.4606,-4.48066 -0.5443,-9.46382 -3.2244,-12.98134 -1.5075,-1.96814 -3.5175,-2.47064 -5.4438,-3.8944 -1.7168,-1.29814 -3.4337,-3.09878 -5.2344,-4.18753 -7.2444,4.94128 -6.03,17.42012 -17.5038,12.98134 -4.10381,-1.59126 -7.49571,-2.13564 -11.97641,-2.59627 -4.3969,-0.46063 -8.1238,0.96313 -12.2275,0.29313 0.2093,-2.17752 1.2981,-4.18753 1.5912,-6.4488 0.2931,-1.84251 -0.9631,-5.52754 -0.042,-6.82567 1.2982,-1.71689 3.685,-0.83751 5.3182,-2.84752 1.0469,-1.34001 2.3031,-4.2294 2.9312,-5.90442 1.6332,-4.10377 1.3401,-10.92945 -0.9631,-14.65635 -1.8844,-3.0568901 -6.365,-7.0769291 -9.8407,-7.3700591 -6.1975,-0.5025 -7.4538,3.978169 -9.7569,8.3750691 -1.5913,0.0419 -4.4807,-0.37688 -5.7369,0.0419 -1.8844,0.62813 -1.5913,2.47064 -3.5176,2.88939 0.2094,-0.29313 0.2094,-2.01001 0.8794,-1.84251 -4.9831,-1.29814 -7.2444,-5.7369201 -11.8926,-6.9513091 -4.4387,-1.13063 -12.1438,0.20938 -16.2057,-1.96814 0.3769,-0.96313 0.5444,-2.05189 0.5444,-3.09877 -2.8057,-1.54937997 -7.5376,-2.01000997 -10.6363,-1.38187997 -5.2344,1.13062997 -4.9832,2.84751997 -5.2344,7.74692897 -3.6851,0.33501 -6.9095,-0.879389 -10.3432,-1.507519 -3.4757,-0.62813 -6.1138,0.41876 -9.3801,1.214399 -5.7369,1.46563 -14.2795,-1.968149 -19.0951,2.5125101 0.1256,-1.8006301 -0.2094,-2.8475191 -0.7957,-4.1037791 -3.6431,3.685029 -8.3332,4.2294091 -12.1438,6.8675491 -2.3869,1.59126 -6.23942,9.42194 -8.751943,7.70506 -1.88439,1.67501 -4.64816,5.02503 -6.53255,6.11379 -2.51251,1.46563 -7.1188,1.88439 -9.96632,2.63814 -3.18252,0.87938 -5.94629,2.01002 -9.08693,-0.46063 -1.21439,-0.96313 -1.67501,-3.51752 -3.64315,-2.59626 -1.08876,0.5025 -1.21439,3.18252 -1.34001,4.2294 -4.39691,-0.20938 -7.24443,0.62813 -8.08193,5.10878 4.18753,-1.50751 7.24442,3.2244 10.00819,5.69504 3.14065,2.84752 6.40692,5.90442 10.72008,5.82067 -0.54438,0.87938 -1.34001,1.42376 -2.2194,1.88439 -2.05188,1.04688 -4.3969,0.67 -6.40691,2.34501 -1.80064,1.46564 -3.01502,2.93127 -4.94129,4.18753 -3.35002,2.21939 -5.44379,6.70005 -9.46381,8.24943 -2.47064,0.96313 -4.39691,0.0838 -6.15567,2.5544 -1.34001,1.84251 -2.05189,4.64815 -2.17752,6.90942 -0.41875,8.33318 5.69504,3.60127 10.3432,6.70004 -1.04688,0.46063 -2.30314,0.50251 -3.18252,1.04689 -0.58626,0.335 -1.63314,1.71688 -2.01001,1.88438 -2.2194,0.92126 -3.5594,-0.46062 -5.98817,0.46063 -2.42877,0.96313 -3.3919,2.84752 -4.60628,4.81566 -0.29313,0.41875 -0.0837,1.38188 -0.37688,1.88439 -0.29313,0.5025 -1.42376,0.20937 -1.50751,0.46063 -0.46063,1.34001 -0.83751,1.04688 0,2.47064 1.17251,2.01001 5.06691,1.84251 7.03505,1.67501 10.63632,-0.58625 18.92763,-0.79563 27.59581,5.736914 7.66318,5.82067 14.69823,12.26946 21.90078,18.2995 3.559403,2.97315 6.867593,6.03005 10.761993,8.37506 3.6012,2.13564 7.6213,6.07192 11.6413,7.1188 l -1.2981,1.59126 c -3.2244,0.71188 -5.8207,2.84752 -9.087,3.5594 -3.5594,0.83751 -7.32816,1.08876 -11.013193,1.38189 -10.38507,0.71188 -20.43514,2.38689 -30.77833,0.335 -8.96131,-1.80064 -22.31953,-2.38689 -27.80519,6.36504 3.3919,-0.54438 5.86254,-2.13564 10.00819,-1.88439 3.68503,0.20938 7.16068,0.96314 11.0132,1.29814 7.32818,0.62813 10.38507,-2.34502 21.14702,0.92125 4.89941,1.46564 10.1757,1.08876 15.49386,1.38189 5.066943,0.20937 10.636343,-0.5025 15.786943,-0.46063 5.0251,0 9.087,0 13.7351,-1.67501 4.2294,-1.54939 6.6582,-4.39691 12.6045,-8.12381 1.2981,0.12563 2.5544,-0.1675 3.5594,-0.92125 -0.1675,0.37687 -0.5025,0.79563 -0.5863,1.1725 -0.4187,2.01002 -2.8056,3.89441 -3.35,6.1138 -0.5862,2.47064 -0.4606,5.48566 -0.335,8.08193 0.2931,4.98316 1.4238,10.09194 2.8475,14.65635 0.6282,2.05189 1.0888,4.85753 2.5544,6.49067 1.5913,1.80063 3.6432,1.80063 5.5276,2.93127 3.4756,2.09376 2.5544,9.25444 6.4906,10.55257 0.1675,-3.2244 0.1675,-6.23942 0.9632,-9.12881 -0.7119,14.48885 -1.675,29.10332 -1.1307,43.08967 0.9213,23.95266 2.6801,46.81657 5.1926,70.64361 1.1725,11.2645 2.4706,21.9008 2.4706,33.7515 0,5.5694 -0.335,9.2126 -0.5444,12.7301 -0.67,-0.9631 -1.2143,-2.0519 -1.675,-3.1407 -1.0469,-2.5125 -2.2194,-4.6062 -3.8944,-6.8256 -1.5912,-2.1775 -4.1038,-2.9732 -5.3181,0 -0.7119,1.8844 0.2093,3.9781 0.4606,5.9463 -1.5075,-2.0519 -3.5594,-4.0619 -4.7319,-6.1138 -1.7169,-2.9732 -2.9732,-7.9563 -6.6163,-9.6313 -3.685,-1.7169 -7.6213,-1.6751 -10.6363,-5.2345 -3.4757,-4.1037 -1.8844,-7.4119 2.8894,-8.5006 -1.8844,-2.01 -8.082,-3.8107 -8.7101,0.3768 -7.2444,0.5444 -9.2126,-7.035 -13.9445,-10.88756 -7.1606,-5.86254 -16.959473,-6.99317 -20.644493,-16.12199 -3.51752,-8.66818 -4.2294,-19.76513 -9.00319,-28.01456 -0.1675,0.87938 -0.62813,1.54938 -0.71188,2.47064 -4.60628,-5.52754 -10.00819,-7.53755 -17.08511,-7.66318 3.14064,3.8944 -8.08193,1.67501 -9.38007,1.34001 -4.35503,-1.38188 -7.57943,-3.85253 -12.43696,-3.47565 6.6163,2.30314 -0.37688,4.31316 -5.86254,3.85253 -4.2294,-0.37688 -8.751929,0.67 -13.023209,1.29813 2.97314,1.00501 0.29312,4.35503 -1.92627,5.23441 -3.85252,1.63314 -4.18753,0.12563 -7.20255,-2.21939 C 12.520708,249.72288 1.92626,246.16348 0,250.18351 l 4.522528,-0.335 c 1.96814,-0.0419 5.69504,2.88939 5.23441,5.82066 4.18753,-1.88438 4.39691,3.89441 6.70005,4.94129 1.71688,-1.17251 2.21939,-3.43378 4.81566,-2.5544 1.21438,0.46063 2.01001,0.83751 2.84752,1.54939 0.5025,0.46063 1.1725,2.01001 1.54938,2.51252 1.50751,2.09376 1.13063,3.3919 3.7269,5.02503 1.381889,0.87938 10.594449,4.10378 2.847519,3.81065 3.5594,4.48066 9.71507,9.75695 8.54256,15.53573 -0.58625,0.67001 -1.50751,-0.54437 -2.13564,-0.87938 0.71188,6.36505 4.14565,9.00319 12.64634,15.87073 -1.71689,2.0938 -3.64315,0.6282 -5.73692,0.2932 1.67501,3.2244 6.53255,4.1456 9.50569,4.9831 3.7269,1.0469 6.82567,3.35 11.05508,3.1825 -0.62813,0.335 -1.59126,1.0051 -2.47064,1.2144 1.04688,0.2932 2.63814,0.5444 3.81065,0.5444 4.5644,-0.042 9.84069,-3.9363 13.94447,-5.8625 4.60628,-2.1357 8.96131,-6.8676 13.94447,-5.5276 2.17751,0.5863 4.64816,1.675 6.825673,2.68 2.80562,1.2982 2.38692,2.0938 3.97812,4.1876 3.0569,4.1456 7.747,4.02 11.8926,5.9044 -1.1725,4.8994 -0.4187,10.5526 -0.5444,15.4938 0.042,0 1.5494,-10.1756 5.067,-11.9763 2.3868,-1.1725 9.4638,4.6063 11.725,6.0719 4.1038,2.5963 7.5376,4.8994 11.0132,8.4588 1.9263,1.9682 5.4857,6.0301 8.6682,7.5376 0,0.2931 0.042,0.5862 0.1256,0.9631 0.3769,1.2144 0.9632,2.5963 1.6332,3.685 1.5494,2.3032 3.1406,4.5645 4.8575,6.6582 1.0888,1.3819 2.2194,2.5963 3.7269,3.1407 0,0.084 0,0.1675 0,0.335 1.1306,23.7851 3.8107,55.3591 3.8107,79.6049 0,11.6832 -3.4757,58.8348 -5.6951,69.1361 3.1407,1.2981 6.8257,0.4606 9.9663,1.5075 1.3819,-18.467 4.1876,-36.0965 5.067,-54.7729 0.4606,-9.8407 -0.3769,-19.807 0.1675,-29.7314 0.3768,-7.0351 3.5175,-20.8958 0.5443,-26.8421 -0.5862,-0.1675 -0.5443,0.5863 -1.0887,0.5444 -2.345,-16.9176 -2.7219,-33.0396 -1.8425,-48.9522 0.4606,-8.1238 2.0519,-17.5458 2.9731,-25.7952 3.0988,-1.8006 6.7419,-5.4019 7.3282,-6.4907 0.5862,-1.1725 0.7119,-2.8475 0.4606,-4.4387 0.5025,-0.6282 0.9213,-1.1307 1.1725,-1.4238 5.4438,-5.36 12.2276,-8.45885 18.5926,-12.2695 4.0619,-2.42876 5.8626,-3.35002 10.7201,-3.35002 1.5913,0 4.3969,-0.41875 5.1088,1.46564 0.5863,1.50751 -1.0888,4.02002 -2.01,4.3969 2.5544,-0.83751 5.025,-2.93127 4.6481,-5.86254 -0.3768,-2.72189 -3.6431,-5.86254 -6.5325,-4.98316 3.35,-2.55439 7.0351,-4.69003 10.9295,-5.98817 4.3969,-1.42375 9.715,-0.46062 14.3632,-0.96313 3.72691,-0.41875 7.41191,-0.96313 10.92941,-2.17751 3.4338,-1.17251 6.4907,-3.51753 10.0082,-4.56441 4.2294,-1.29813 5.9044,0.79563 9.5895,2.42877 3.9362,1.71689 5.9044,3.43377 10.2594,1.63313 4.02,-1.63313 6.9513,-1.63313 11.01316,-0.79563 3.5594,0.79563 6.5744,-1.21438 10.1338,-1.42376 1.7169,-0.0837 4.3551,-0.1675 5.7369,0.54438 1.4238,0.71188 2.5126,2.47065 4.0201,3.30815 2.8475,1.59126 7.1188,4.14565 10.385,3.8944 -0.5862,-0.62813 -1.5075,-1.04688 -2.1775,-1.63313 1.1725,-1.84252 5.0251,-0.29313 6.8676,-0.50251 2.0519,-0.20937 3.8944,-1.71688 5.8625,-2.42876 4.4807,-1.54939 7.8726,-2.51252 11.1389,-6.32317 -0.7119,0.29313 -3.5594,1.34001 -4.3551,0.67 -1.4237,-1.13063 1.34,-2.59627 2.2194,-3.09877 2.6382,-1.50751 5.5694,-2.59627 8.1238,-4.2294 2.345,-1.50751 4.1038,-2.59627 6.6163,-3.5594 2.5963,-1.00501 4.1038,-2.80565 6.4907,-4.14566 -1.4238,0.16751 -2.8057,0.16751 -3.0988,-1.46563 1.005,-0.79563 2.68,-1.13063 3.9363,-1.96814 1.005,-0.62813 1.9681,-1.46563 2.8894,-2.05189 -1.34,0.29313 -2.7219,0.12563 -3.6432,-0.58625 2.0519,-1.54939 4.1457,-2.80565 5.3601,-5.31816 -1.7169,-0.83751 -2.9732,0 -4.1457,-1.96814 -1.0469,-1.71689 -0.7119,-3.51753 0.3769,-5.10879 1.0469,-1.54938 1.4656,-2.05189 2.1356,-3.68502 0.5863,-1.50751 1.005,-2.38689 2.4707,-3.35003 5.695,-3.64315 9.2125,-6.53254 12.4788,-12.64633 -3.685,0.1675 -9.4219,3.93627 -12.1438,1.17251 z"
     inkscape:connector-curvature="0"
     style="fill:#ff1493;stroke-width:0.41875288" /><path
     style="font-style:normal;font-variant:normal;font-weight:normal;font-stretch:normal;font-size:medium;line-height:1.25;font-family:'Cooper Black';-inkscape-font-specification:'Cooper Black, Normal';font-variant-ligatures:normal;font-variant-caps:normal;font-variant-numeric:normal;text-align:start;letter-spacing:0px;word-spacing:0px;writing-mode:lr-tb;text-anchor:start;fill:#000000;fill-opacity:1;stroke:none;stroke-width:1"
     d="M 53.382812 74.099609 C 53.226562 74.099609 53.011719 74.138672 52.738281 74.216797 C 51.852865 74.477213 50.941408 74.652994 50.003906 74.744141 C 49.079426 74.822266 47.601561 74.861328 45.570312 74.861328 L 35.53125 74.861328 C 34.072916 74.861328 33.089845 74.919923 32.582031 75.037109 C 32.178386 75.141277 31.852863 75.356121 31.605469 75.681641 C 31.372787 75.987798 31.259934 76.337826 31.246094 76.724609 C 31.186895 76.670166 31.132547 76.613256 31.070312 76.560547 C 30.289062 75.896486 29.364584 75.427734 28.296875 75.154297 C 27.24219 74.867838 25.848961 74.724609 24.117188 74.724609 C 23.388022 74.724609 22.574219 74.737619 21.675781 74.763672 C 18.811197 74.841797 16.890625 74.880859 15.914062 74.880859 C 14.585937 74.880859 13.348958 74.85482 12.203125 74.802734 C 11.513021 74.763673 10.946615 74.744141 10.503906 74.744141 C 9.6966148 74.744141 9.0325521 74.926432 8.5117188 75.291016 C 8.0039062 75.655597 7.75 76.124348 7.75 76.697266 C 7.75 77.400391 8.1796876 77.934244 9.0390625 78.298828 C 9.78125 78.624348 10.25 79.041015 10.445312 79.548828 C 10.653646 80.04362 10.757812 81.052735 10.757812 82.576172 C 10.757812 86.729817 10.634114 90.225912 10.386719 93.064453 C 10.217448 94.88737 10.061198 96.078776 9.9179688 96.638672 C 9.7747394 97.185547 9.5143228 97.589193 9.1367188 97.849609 C 8.4856769 98.292319 8.0755207 98.617839 7.90625 98.826172 C 7.7369791 99.034505 7.6523438 99.320966 7.6523438 99.685547 C 7.6523438 100.24544 7.8802084 100.72721 8.3359375 101.13086 C 8.8046876 101.5345 9.4361978 101.73633 10.230469 101.73633 C 10.55599 101.73633 11.096354 101.70378 11.851562 101.63867 C 12.697917 101.5866 14.039062 101.54754 15.875 101.52148 L 18.492188 101.50195 C 18.882813 101.51497 19.9375 101.55404 21.65625 101.61914 C 23.544271 101.68424 24.729167 101.7168 25.210938 101.7168 C 27.73647 101.7168 29.814057 101.18795 31.458984 100.14844 C 31.517834 100.53642 31.68576 100.85292 31.976562 101.0918 C 32.341147 101.37826 32.85547 101.52148 33.519531 101.52148 L 50.082031 101.52148 C 51.475261 101.56055 52.588542 101.6582 53.421875 101.81445 C 53.890627 101.89258 54.248699 101.93164 54.496094 101.93164 C 54.795574 101.93164 55.042969 101.85352 55.238281 101.69727 C 55.433593 101.55404 55.680989 101.26107 55.980469 100.81836 C 56.409606 100.15081 56.789738 99.410753 57.121094 98.603516 C 58.062128 99.392889 59.111827 100.05683 60.28125 100.58398 C 62.442709 101.56055 64.610676 102.04883 66.785156 102.04883 C 68.86849 102.04883 70.873699 101.58659 72.800781 100.66211 C 73.604432 100.27942 74.247062 100.04447 74.738281 99.949219 C 74.795109 100.24619 74.926454 100.52364 75.134766 100.7793 C 75.434246 101.11784 75.81836 101.35221 76.287109 101.48242 C 77.39388 101.76888 79.151694 101.91211 81.560547 101.91211 C 84.26888 101.91211 86.195962 101.72982 87.341797 101.36523 C 88.487629 100.98763 89.060547 100.36914 89.060547 99.509766 C 89.060547 98.832683 88.708985 98.266278 88.005859 97.810547 C 87.680339 97.589195 87.472006 97.445963 87.380859 97.380859 C 86.886067 96.93815 86.638672 96.137369 86.638672 94.978516 C 86.638672 93.559244 87.016274 92.849609 87.771484 92.849609 C 88.018879 92.849609 88.285807 92.973308 88.572266 93.220703 C 88.871746 93.455079 89.386069 93.96289 90.115234 94.744141 C 91.781901 96.554037 93.123048 98.155599 94.138672 99.548828 C 94.776693 100.42122 95.238932 100.9681 95.525391 101.18945 C 95.824871 101.41081 96.228515 101.52148 96.736328 101.52148 L 104.13867 101.52148 C 106.10482 101.52148 107.08789 100.83138 107.08789 99.451172 C 107.08789 98.865233 106.93815 98.389975 106.63867 98.025391 C 106.35222 97.660809 105.85742 97.328777 105.1543 97.029297 C 104.6595 96.807942 104.28841 96.599609 104.04102 96.404297 C 103.79362 96.195964 103.3444 95.714192 102.69336 94.958984 L 95.388672 86.501953 C 94.906901 85.942057 94.574869 85.499348 94.392578 85.173828 C 94.223306 84.848305 94.138672 84.522786 94.138672 84.197266 C 94.138672 83.598308 94.522786 82.934246 95.291016 82.205078 L 97.380859 80.193359 C 97.927734 79.672525 98.37044 79.340495 98.708984 79.197266 C 99.060547 79.04101 99.58138 78.956373 100.27148 78.943359 C 101.26107 78.930338 101.89258 78.878256 102.16602 78.787109 C 102.32365 78.742071 102.46779 78.669413 102.60352 78.578125 C 102.67943 78.606797 102.71885 78.626128 102.80078 78.65625 C 103.42578 78.890626 104.07682 79.339845 104.75391 80.003906 C 106.31641 81.540365 107.83333 83.265626 109.30469 85.179688 C 110.00781 86.104168 110.46354 86.859374 110.67188 87.445312 C 110.88021 88.018227 110.98438 88.825521 110.98438 89.867188 C 110.98437 93.213542 110.77604 95.335938 110.35938 96.234375 C 110.17708 96.638023 109.71484 96.970053 108.97266 97.230469 C 107.98307 97.582031 107.48828 98.161459 107.48828 98.96875 C 107.48828 100.01042 108.29557 100.70703 109.91016 101.05859 C 111.82422 101.47526 113.85547 101.68359 116.00391 101.68359 C 121.23828 101.68359 123.85547 100.79818 123.85547 99.027344 C 123.85547 98.285154 123.38021 97.666667 122.42969 97.171875 C 121.85677 96.872398 121.47917 96.572918 121.29688 96.273438 C 121.11458 95.960936 120.99089 95.407551 120.92578 94.613281 C 120.80859 93.324217 120.75 91.924479 120.75 90.414062 C 120.75 88.617188 120.96485 87.269531 121.39453 86.371094 C 121.83724 85.459635 122.94401 84.046874 124.71484 82.132812 C 126.17318 80.570311 127.17578 79.580729 127.72266 79.164062 C 128.26953 78.734374 128.91406 78.447917 129.65625 78.304688 C 130.46354 78.161461 131.02995 77.953128 131.35547 77.679688 C 131.68099 77.40625 131.84375 77.002603 131.84375 76.46875 C 131.84375 76.052083 131.70052 75.661459 131.41406 75.296875 C 131.14063 74.932294 130.78906 74.684898 130.35938 74.554688 C 129.68229 74.346354 128.21745 74.242188 125.96484 74.242188 C 121.98047 74.242188 119.98828 74.977864 119.98828 76.449219 C 119.98828 76.957032 120.11849 77.360676 120.37891 77.660156 C 120.74349 78.102863 120.95182 78.382811 121.00391 78.5 C 121.06901 78.617187 121.10156 78.792968 121.10156 79.027344 C 121.10156 79.404946 120.84765 79.91276 120.33984 80.550781 C 119.92318 81.071613 119.58464 81.436198 119.32422 81.644531 C 119.0638 81.839846 118.79687 81.9375 118.52344 81.9375 C 118.09375 81.9375 117.63802 81.60547 117.15625 80.941406 C 116.41406 79.912761 116.04297 79.164062 116.04297 78.695312 C 116.04297 78.460936 116.2513 78.076822 116.66797 77.542969 C 116.95443 77.191406 117.09766 76.846354 117.09766 76.507812 C 117.09766 76.065103 116.90886 75.674479 116.53125 75.335938 C 116.16667 74.984375 115.67838 74.749999 115.06641 74.632812 C 113.72526 74.359375 111.77865 74.222656 109.22656 74.222656 C 106.14063 74.222656 103.9401 74.41797 102.625 74.808594 C 102.42717 74.865398 102.27354 74.937858 102.10547 75.005859 C 101.97226 74.95169 101.83069 74.903348 101.67773 74.861328 C 100.71419 74.600909 99.229817 74.470703 97.224609 74.470703 C 94.711588 74.470703 92.934245 74.672524 91.892578 75.076172 C 90.850911 75.466796 90.330078 76.143881 90.330078 77.107422 C 90.330078 77.380859 90.414712 77.680337 90.583984 78.005859 C 90.831379 78.474609 90.955078 78.826174 90.955078 79.060547 C 90.955078 79.503256 90.466797 80.330077 89.490234 81.541016 C 88.64388 82.582682 88.077474 83.233725 87.791016 83.494141 C 87.517578 83.754557 87.231118 83.884766 86.931641 83.884766 C 86.436849 83.884766 86.189453 83.33789 86.189453 82.244141 C 86.189453 81.580077 86.27409 80.902995 86.443359 80.212891 C 86.625653 79.522787 86.820964 79.086588 87.029297 78.904297 C 87.602212 78.448566 87.953774 78.116536 88.083984 77.908203 C 88.227214 77.686851 88.298828 77.380861 88.298828 76.990234 C 88.298828 76.052736 87.856122 75.401693 86.970703 75.037109 C 85.981122 74.646485 84.464194 74.451172 82.419922 74.451172 C 80.414714 74.451172 78.748047 74.581381 77.419922 74.841797 C 76.417317 75.037109 75.68815 75.323567 75.232422 75.701172 C 75.105893 75.80601 75.001555 75.922967 74.910156 76.046875 C 74.589918 76.108405 74.318269 76.150391 74.148438 76.150391 C 73.822917 76.150391 73.24349 75.955077 72.410156 75.564453 C 70.639322 74.73112 68.803386 74.314453 66.902344 74.314453 C 64.871096 74.314453 62.898439 74.73112 60.984375 75.564453 C 59.223724 76.330746 57.702284 77.342246 56.408203 78.587891 C 56.278088 77.295545 55.879217 76.157858 55.179688 75.193359 C 54.658855 74.464191 54.059895 74.099609 53.382812 74.099609 z M 32.429688 78.306641 C 32.87028 78.437858 33.178414 78.553189 33.324219 78.650391 C 33.480469 78.754559 33.623698 78.93685 33.753906 79.197266 C 34.378906 80.51237 34.691406 83.682942 34.691406 88.708984 C 34.691406 89.399544 34.676645 90.041946 34.658203 90.673828 C 34.460906 90.273764 34.233976 89.89228 33.941406 89.548828 C 33.069012 88.533201 32.098959 87.810545 31.03125 87.380859 C 30.484375 87.159505 30.210937 86.88607 30.210938 86.560547 C 30.210938 86.26107 30.438803 85.929037 30.894531 85.564453 C 31.532553 85.05664 32.040363 84.379558 32.417969 83.533203 C 32.795571 82.67383 32.984375 81.794922 32.984375 80.896484 C 32.984375 79.927614 32.795356 79.066557 32.429688 78.306641 z M 21.050781 78.552734 C 21.910157 78.552734 22.574219 78.891274 23.042969 79.568359 C 23.511718 80.232421 23.746094 81.176433 23.746094 82.400391 C 23.746094 83.663412 23.518228 84.594399 23.0625 85.193359 C 22.606769 85.779295 21.897135 86.072266 20.933594 86.072266 C 20.529948 86.072266 20.243491 85.942057 20.074219 85.681641 C 19.917969 85.421225 19.839844 84.972006 19.839844 84.333984 L 19.839844 80.310547 C 19.839844 79.646486 19.924479 79.190754 20.09375 78.943359 C 20.276041 78.682941 20.595051 78.552734 21.050781 78.552734 z M 45.980469 78.591797 C 47.985677 78.591797 49.42448 78.741536 50.296875 79.041016 C 51.182294 79.327472 51.91146 79.9069 52.484375 80.779297 C 52.88802 81.391276 53.20703 81.788412 53.441406 81.970703 C 53.520557 82.024859 53.624846 82.054967 53.722656 82.091797 C 52.692694 83.989205 52.175781 86.032219 52.175781 88.220703 C 52.175781 90.410718 52.731139 92.520365 53.841797 94.548828 C 53.247146 95.655886 52.513664 96.456083 51.625 96.912109 C 50.635416 97.406901 49.164063 97.654297 47.210938 97.654297 C 45.947916 97.654297 45.042968 97.582682 44.496094 97.439453 C 43.96224 97.283202 43.643231 97.009765 43.539062 96.619141 C 43.447916 96.306639 43.356769 95.668619 43.265625 94.705078 C 43.1875 93.728515 43.148438 92.934244 43.148438 92.322266 C 43.148438 91.319663 43.252604 90.636068 43.460938 90.271484 C 43.682292 89.893879 44.085939 89.705078 44.671875 89.705078 C 46.195312 89.705078 47.054685 90.440755 47.25 91.912109 C 47.341144 92.628256 47.471353 93.103517 47.640625 93.337891 C 47.809894 93.559245 48.115884 93.669922 48.558594 93.669922 C 49.27474 93.669922 49.808594 93.31185 50.160156 92.595703 C 50.798175 91.280599 51.117188 89.5944 51.117188 87.537109 C 51.117187 86.495443 51.019531 85.499348 50.824219 84.548828 C 50.641928 83.585287 50.414062 82.914715 50.140625 82.537109 C 49.76302 82.029296 49.307291 81.775391 48.773438 81.775391 C 48.408853 81.775391 48.089844 81.892577 47.816406 82.126953 C 47.55599 82.335286 47.373699 82.582682 47.269531 82.869141 C 47.178387 83.142578 47.08724 83.656901 46.996094 84.412109 C 46.93099 84.998048 46.774741 85.408205 46.527344 85.642578 C 46.279949 85.863933 45.882812 85.974609 45.335938 85.974609 C 44.229167 85.974609 43.545572 85.883463 43.285156 85.701172 C 43.024738 85.505857 42.894531 85.017576 42.894531 84.236328 C 42.894531 82.25716 42.90754 81.026693 42.933594 80.544922 C 42.972655 80.063151 43.076822 79.679037 43.246094 79.392578 C 43.571614 78.858725 44.483071 78.591797 45.980469 78.591797 z M 66.453125 79.802734 C 67.833333 79.802734 69.154947 80.245441 70.417969 81.130859 C 70.925779 81.495441 71.355469 81.905597 71.707031 82.361328 C 72.058594 82.804035 72.514323 83.539711 73.074219 84.568359 C 73.464845 85.297525 73.86849 85.805338 74.285156 86.091797 C 74.701823 86.378256 75.242189 86.521484 75.90625 86.521484 C 76.447191 86.521484 76.948044 86.41225 77.410156 86.197266 C 77.429104 87.009925 77.439453 87.885971 77.439453 88.845703 C 77.439453 90.220408 77.408031 91.410769 77.355469 92.464844 C 77.283555 92.453055 77.212204 92.439453 77.136719 92.439453 C 76.82422 92.439453 76.420573 92.673829 75.925781 93.142578 C 75.352864 93.702474 74.545573 94.158203 73.503906 94.509766 C 72.475261 94.861328 71.433594 95.037109 70.378906 95.037109 C 67.514322 95.037109 65.313802 93.793619 63.777344 91.306641 C 62.644533 89.444662 62.078125 87.393881 62.078125 85.154297 C 62.078125 83.526692 62.468749 82.231119 63.25 81.267578 C 64.044269 80.291015 65.111978 79.802734 66.453125 79.802734 z M 21.363281 89.841797 C 23.576823 89.841797 24.683594 91.28711 24.683594 94.177734 C 24.683594 96.495444 23.694009 97.654297 21.714844 97.654297 C 20.959633 97.654297 20.458332 97.374349 20.210938 96.814453 C 19.963541 96.254557 19.839844 95.121744 19.839844 93.416016 L 19.839844 91.560547 C 19.839844 90.909507 19.950522 90.460288 20.171875 90.212891 C 20.39323 89.965496 20.790364 89.841797 21.363281 89.841797 z "
     transform="scale(2.5)"
     id="svg-becky" /></svg>